<svg xmlns="http://www.w3.org/2000/svg" xmlns:xlink="http://www.w3.org/1999/xlink" viewBox="0 0 737.28 737.28"><defs><style>.cls-1{fill:none;}.cls-2{clip-path:url(#clip-path);}.cls-3{fill:#ff2e4d;}</style><clipPath id="clip-path" transform="translate(0.12 -0.72)"><rect class="cls-1" width="737.88" height="738.96"/></clipPath></defs><g id="图层_2" data-name="图层 2"><g id="图层_1-2" data-name="图层 1"><g class="cls-2"><path class="cls-3" d="M540.13,325.72c-5.36-.06-10.71,0-16-.06-1.9,0-2.44.85-2.44,2.58.07,4.09.07,8.11.07,12.19h0c0,3.9,0,7.8,0,11.65,0,3.12.55,3.73,3.57,3.73,5.71.06,11.42,0,17.13.06,2.15,0,3-1,2.92-3-.07-7.34-.07-14.66-.12-22a5.42,5.42,0,0,0-5.18-5.17Z" transform="translate(0.12 -0.72)"/><path class="cls-3" d="M638.86.72H98.18A98.3,98.3,0,0,0-.12,99V639.7A98.3,98.3,0,0,0,98.18,738H638.86a98.3,98.3,0,0,0,98.3-98.3V99A98.3,98.3,0,0,0,638.86.72ZM159.55,364.35c-.59,8.47-1.13,17-2.08,25.48-1.68,14.71-5,29-11.72,42.28-1.73,3.3-4.11,6.24-6.55,10-1.48-3.13-2.73-5.58-3.86-8.11q-6-13.39-11.83-26.85a4.22,4.22,0,0,1-.29-3.18c2.55-5.47,2.73-11.3,3.08-17.13.48-7.32,1.08-14.59,1.61-21.91.41-5.61.65-11.19,1.12-16.77.54-6.49,1.2-13,1.73-19.4.12-1.58.83-2.05,2.26-2.05,8.87,0,17.66,0,26.53-.06,1.9,0,2.43.79,2.32,2.59-.78,11.7-1.49,23.42-2.32,35.14Zm57,69.86A26.29,26.29,0,0,1,206.53,453a22.79,22.79,0,0,1-14.93,4.87c-4.7,0-9.34-.07-14,0a3.07,3.07,0,0,1-3.27-2.05c-2.73-6.12-5.52-12.26-8.26-18.38-.42-.9-.54-1.87-.9-2.76-1.31-3.31-1.25-3.43,2.38-3.49h11.12c4.76,0,6.78-2,6.84-6.85.06-3.66.06-7.33.06-11V355.15c.12.12.18.12.24.12v-68.6c0-3.43.12-3.55,3.51-3.55h23.37c4.11,0,4.17.12,4.17,4.33q0,32.63.06,65.18c.06,19.1.23,38.21.23,57.3,0,8.12.12,16.22-.53,24.28Zm60.47-23.13c-4,9.25-8.16,18.38-12.25,27.57-.37.91-1,1.8-1.91,3.54h0c-2.38-3.61-4.87-6.55-6.49-9.92-2.26-4.91-3.62-10.27-5.88-15.2-2.44-5.34-3.33-11.1-4.46-16.75a120.69,120.69,0,0,1-1.48-14.67c-1-12.31-1.79-24.63-2.75-36.87q-.78-10.08-1.66-20.14c-.12-1.2.19-1.74,1.55-1.74,9.22,0,18.38-.12,27.6-.17,1.72,0,2.44.77,2.5,2.39.24,3.73.41,7.45.7,11.18.24,3.07.59,6.12.84,9.13.41,4.33.84,8.65,1.13,12.92.42,5.52.42,11.05,1.19,16.51,1.07,8.35.24,16.88,3.15,25.06.71,1.92-.78,4.87-1.78,7.15Zm67.43,17.62c-2.32,5.34-4.82,10.57-7.2,15.86-1.31,3-2.55,6-3.81,9-1.48,3.6-2.49,4.32-6.3,4.32H309.33c-6,0-12,.19-18-.06-2.86-.11-5.66-1-8.51-1.62-1.43-.3-1.72-1.14-1.13-2.52q5.43-11.65,10.76-23.37c.84-1.8,1.48-3.72,2.44-5.52a1.85,1.85,0,0,1,1.6-.91c9.94,2.52,20.11,2.22,30.21,2.11q8-.09,16.06,0c2.56,0,2.8.36,1.74,2.71Zm3.07-17.5a3.62,3.62,0,0,1-2.2,1.15c-11.12.06-22.3.12-33.42-.06-3.39-.07-6.84-.85-9.4-3.43s-4-5.89-2.62-9.55q3.69-9.71,7.67-19.29c3.1-7.32,6.24-14.66,9.64-22.59-1.85-.12-3-.23-4-.23-3.27-.06-6.55.23-9.82-.19-3.57-.41-7.19-.84-10-3.83a9.55,9.55,0,0,1-2.09-9.86c1.72-5.47,4-10.76,6.24-16,2.14-4.93,4.58-9.73,6.78-14.6,2.39-5.23,4.7-10.45,7-15.68q3.1-6.92,6.12-13.87a2.88,2.88,0,0,1,3.1-2c8.75.05,17.55,0,26.29,0,2.91,0,3,.29,1.84,2.94-5.05,11.71-10.17,23.37-15.16,35.08a9.17,9.17,0,0,0-1,3.91c.18,3.12.84,3.6,4.05,3.6,6.54.06,13.09,0,19.56,0,1.32,0,2.68.18,4,.23,1.85.07,2.08.86,1.31,2.47Q356,341,350.76,352.75c-2.44,5.53-4.75,11.11-7.13,16.65q-2.44,5.53-4.94,11c-1.55,3.37-.48,5.05,3.33,5.12,4.81,0,9.63.06,14.44,0,1.67,0,2.51.48,1.67,2.28-2.91,6.6-5.77,13.26-8.68,19.88a17.7,17.7,0,0,1-1.9,3.48Zm107.85,47H355.13a37,37,0,0,0-4.75-.18h0c.7-2.09,1.13-3.53,1.71-4.85,3.76-8.24,7.56-16.41,11.25-24.64a3.57,3.57,0,0,1,3.81-2.33h23c3.64,0,3.81-.19,3.81-3.8V329.09c0-3.19-.07-3.24-3.27-3.24-4.88,0-9.81-.07-14.69,0-1.85,0-2.62-.42-2.62-2.52.12-8.78.07-17.55.07-26.31,0-3.13.05-3.13,3.08-3.13h58.4c3.39,0,6.84.06,10.23,0,1.62,0,2.27.66,2.2,2.28-.06,9.13-.06,18.26-.06,27.45,0,1.63-.58,2.23-2.26,2.23-5.28-.07-10.51,0-15.82,0-1.84,0-2.67.85-2.67,2.77.06,14.72.11,29.37.11,44.09q0,25,.07,50.16c0,3,.29,3.37,3.34,3.37h25.14c2.74,0,3.1.29,3.16,3,.07,8.78,0,17.55.07,26.32,0,2.29-1.26,2.53-3,2.53Zm159-27.94a26.9,26.9,0,0,1-21.11,26.31,53,53,0,0,1-10.6,1.21c-5.47.17-11,.06-16.47.06-3.39,0-4.34-.67-5.59-3.74-2.67-6.36-5.46-12.72-8.21-19.1l-.53-1.25c-1-2.46-.65-2.9,2-2.9,7.55,0,15.17.13,22.72-.23,4.52-.24,6.42-2.28,6.54-6.91.18-8.84-.23-17.66-.11-26.49.06-4.39-5.48-9.14-9.4-9.38-.73-.07-1.46-.11-2.2-.11-15,0-30,0-45,0-4.23,0-4.52.43-4.52,4.7l.16,62c0,3.32-.06,3.37-3.39,3.37h-25c-3.21,0-3.44-.24-3.44-3.43V422.5a.15.15,0,0,0,.17.11V389.82c0-2.22-1.48-2.35-3-2.35-8.15.07-16.35.25-24.49.25-5.54,0-4.95.65-5-5.11-.06-7.93,0-15.93,0-23.85,0-2.88.29-3.24,3.16-3.3,8.56-.06,17.07,0,25.63-.06,3.27,0,3.45-.13,3.51-3.37.06-7.92-.06-15.85,0-23.79,0-2-.84-2.58-2.73-2.58-5.48.06-11-.06-16.49,0-1.72,0-2.31-.6-2.31-2.34.07-9,.07-18,0-27,0-2.16.82-2.63,2.73-2.63,5.05.06,10.11,0,15.16,0,3.39,0,3.57-.25,3.63-3.8,0-2.09.12-4.19,0-6.3s.84-2.52,2.68-2.52c7.26.06,14.57.06,21.82.06h4c3.16,0,3.22,0,3.34,3.24,0,1.93-.12,3.9-.07,5.83.07,2.7.78,3.42,3.46,3.49,4.52.06,9,.06,13.61.06,11.72.06,21.9,4.08,29.62,13a29.87,29.87,0,0,1,7.37,17.71c.42,6.79.13,13.64.25,20.43,0,2.52.17,5.11.29,7.63s.72,3.18,3.27,3.12a39,39,0,0,1,15.23,2.53c10.41,4,16.82,11.35,18.91,22.41a35.33,35.33,0,0,1,.59,6.66q.11,21.46,0,42.95ZM607,322.67c-4.75,3.12-9.74,3-15.52,2.94-1.79,0-4.16.06-6.48-.06-.6-.05-1.61-.78-1.67-1.27-.53-7.08-1.42-14.23,1.08-21.08,2.21-6.06,7.67-9.61,14.1-9.73A16,16,0,0,1,614,304.94c1.85,6.62-1.24,13.94-7,17.73Z" transform="translate(0.12 -0.72)"/></g></g></g></svg>