<svg xmlns="http://www.w3.org/2000/svg" xmlns:xlink="http://www.w3.org/1999/xlink" viewBox="0 0 819.2 819.2"><defs><style>.cls-1{fill:none;}.cls-2{clip-path:url(#clip-path);}.cls-3{fill:#ec5d85;}.cls-4{fill:#ef85a7;}.cls-5{fill:#fff;}.cls-6{fill:#eb5480;}</style><clipPath id="clip-path" transform="translate(0.12 -0.52)"><rect class="cls-1" width="819.84" height="820.72"/></clipPath></defs><g id="图层_2" data-name="图层 2"><g id="图层_1-2" data-name="图层 1"><g class="cls-2"><path class="cls-3" d="M147.34.52H671.62Q819.08.52,819.08,148V672.26q0,147.47-147.46,147.46H147.34Q-.12,819.72-.12,672.26V148Q-.12.52,147.34.52Z" transform="translate(0.12 -0.52)"/></g><path class="cls-4" d="M409.48,194.09h41.78l52.05-77C543,76.78,575,117.38,554.4,153.6L527,194.81c206.11,4,206.11,34.41,206.11,260,0,260.76,0,269.17-323.58,269.17S85.9,715.6,85.9,454.84c0-222.16,0-255,202.51-260l-31.55-46.7c-25-43.93,29.87-72.33,51.75-33.9L357,194.13c14.54,0,32.94,0,52.53,0Z" transform="translate(0.12 -0.52)"/><path class="cls-3" d="M409.48,271.39c266.24,0,266.24,0,266.24,192.51s0,198.71-266.24,198.71-266.24-6.2-266.24-198.71,0-192.51,266.24-192.51Z" transform="translate(0.12 -0.52)"/><path class="cls-4" d="M225.16,447a24.58,24.58,0,0,1-11-46.56l98.31-49.15a24.57,24.57,0,0,1,22,44l-98.3,49.16a24.66,24.66,0,0,1-11,2.59ZM602,447a24.65,24.65,0,0,1-10.28-2.27L485.22,395.56a24.57,24.57,0,1,1,20.57-44.62l106.5,49.15A24.58,24.58,0,0,1,602,447ZM363.61,534a12.31,12.31,0,0,1-7.38-22.15L411,471.14l40.28,42.1a12.29,12.29,0,1,1-17.76,17l-25.28-26.42-37.37,27.78a12.17,12.17,0,0,1-7.3,2.43Z" transform="translate(0.12 -0.52)"/><path class="cls-5" d="M52.31,296c12,81.53,26.28,117.75,35.63,284.27,11.71,1.74,142.17,8,163.24-59.71a12.89,12.89,0,0,0,1.33-8.7C228,447.57,117.13,463.5,117.13,463.5s-8.29-117.2-9.2-191.07Zm237.37,11,27.85,242.54h27.72L324.07,305.43ZM247.5,429.55h36.39l12.88,126.9-25.46,1.48Zm109.87,5.36H394V564.79H366.92Zm-120.21-68h17.11l4.22,47.19-15.13,1.81Zm24.31,0h17.12l2,44.65-13.93,1.29Zm114.91,1.53h15.56v49.82H376.38Zm-24.31,0h17.76v49.82h-13.3Z" transform="translate(0.12 -0.52)"/><path class="cls-6" d="M194.74,516.93a219.89,219.89,0,0,1-22.78,19,193.7,193.7,0,0,1-23.62,14,2.17,2.17,0,0,1-3.53-1.57,206.18,206.18,0,0,1-4.09-23.65c-1.13-9.75-1.57-20.55-1.73-29.09,0-.25,0-2,2.41-1.53a197.19,197.19,0,0,1,27.38,7.66,206,206,0,0,1,25.88,12.15c.42.2,2,1.18.08,3Z" transform="translate(0.12 -0.52)"/><path class="cls-5" d="M410.51,296c12,81.53,26.28,117.75,35.64,284.27,11.7,1.74,142.16,8,163.24-59.71a13,13,0,0,0,1.32-8.7c-24.49-64.26-135.37-48.33-135.37-48.33s-8.3-117.2-9.2-191.07Zm237.37,11,27.85,242.54h27.72L682.28,305.43ZM605.7,429.55h36.39L655,556.45l-25.46,1.48Zm109.88,5.36h36.64V564.79h-27.1Zm-120.22-68h17.12l4.22,47.19-15.13,1.81Zm24.32,0h17.11l2,44.65-13.92,1.29Zm114.9,1.53h15.57v49.82H734.58Zm-24.3,0H728v49.82h-13.3Z" transform="translate(0.12 -0.52)"/><path class="cls-6" d="M552.94,516.93a219.89,219.89,0,0,1-22.78,19,193.7,193.7,0,0,1-23.62,14,2.16,2.16,0,0,1-3.52-1.57,204.06,204.06,0,0,1-4.1-23.65c-1.13-9.75-1.56-20.55-1.73-29.09,0-.25,0-2,2.41-1.53A196.81,196.81,0,0,1,527,501.77a205.34,205.34,0,0,1,25.88,12.15c.42.2,2,1.18.08,3Z" transform="translate(0.12 -0.52)"/></g></g></svg>